HIERARCHY
ROOT Hips
{
     OFFSET 1.54825 100.00600 25.87710
     CHANNELS 6 Xposition Yposition Zposition Zrotation Xrotation Yrotation
     JOINT Spine
     {
          OFFSET -0.00000 11.89050 -0.00000
          CHANNELS 3 Zrotation Xrotation Yrotation
          JOINT Spine1
          {
               OFFSET 0.00000 25.65740 0.12766
               CHANNELS 3 Zrotation Xrotation Yrotation
               JOINT HEad
               {
                    OFFSET 0.00000 8.73416 0.01134
                    CHANNELS 3 Zrotation Xrotation Yrotation
                    End Site
                    {
                         OFFSET -0.29000 12.77420 2.51395
                    }
               }
               JOINT LeftShoulder1
               {
                    OFFSET 8.99000 -0.36225 -0.22000
                    CHANNELS 3 Zrotation Xrotation Yrotation
                    JOINT LeftArm
                    {
                         OFFSET 10.28270 -0.00338 0.32212
                         CHANNELS 3 Zrotation Xrotation Yrotation
                         JOINT LeftForeArm
                         {
                              OFFSET 32.76690 0.09914 -1.42434
                              CHANNELS 3 Zrotation Xrotation Yrotation
                              JOINT LeftHand
                              {
                                   OFFSET 27.56430 0.08536 1.02216
                                   CHANNELS 3 Zrotation Xrotation Yrotation
                                   End Site
                                   {
                                        OFFSET 16.74430 -0.60000 1.50291
                                   }
                              }
                         }
                    }
               }
               JOINT RightShoulder
               {
                    OFFSET -8.99000 -0.36225 -0.22000
                    CHANNELS 3 Zrotation Xrotation Yrotation
                    JOINT RightArm
                    {
                         OFFSET -10.28270 -0.00338 0.32212
                         CHANNELS 3 Zrotation Xrotation Yrotation
                         JOINT RightForeArm
                         {
                              OFFSET -32.89710 0.09914 -1.42434
                              CHANNELS 3 Zrotation Xrotation Yrotation
                              JOINT RightHand
                              {
                                   OFFSET -27.49210 0.08536 1.02216
                                   CHANNELS 3 Zrotation Xrotation Yrotation
                                   End Site
                                   {
                                        OFFSET -16.63120 -0.60000 1.50291
                                   }
                              }
                         }
                    }
               }
          }
     }
     JOINT LeftUpLeg
     {
          OFFSET 8.94580 -8.66707 0.10165
          CHANNELS 3 Zrotation Xrotation Yrotation
          JOINT LeftLeg
          {
               OFFSET 0.00000 -44.42270 1.37270
               CHANNELS 3 Zrotation Xrotation Yrotation
               JOINT LeftFoot
               {
                    OFFSET -0.25355 -42.09240 -1.46059
                    CHANNELS 3 Zrotation Xrotation Yrotation
                    JOINT LeftToes
                    {
                         OFFSET -0.04000 -4.41509 8.49910
                         CHANNELS 3 Zrotation Xrotation Yrotation
                         End Site
                         {
                              OFFSET 0.08000 -0.04745 9.77979
                         }
                    }
               }
          }
     }
     JOINT RightUpLeg
     {
          OFFSET -8.94580 -8.66707 0.10165
          CHANNELS 3 Zrotation Xrotation Yrotation
          JOINT RightLeg
          {
               OFFSET 0.00000 -44.42270 1.37270
               CHANNELS 3 Zrotation Xrotation Yrotation
               JOINT RightFoot
               {
                    OFFSET 0.25355 -42.09240 -1.46059
                    CHANNELS 3 Zrotation Xrotation Yrotation
                    JOINT RightToes
                    {
                         OFFSET 0.04000 -4.41509 8.49910
                         CHANNELS 3 Zrotation Xrotation Yrotation
                         End Site
                         {
                              OFFSET -0.08000 -0.13745 9.77979
                         }
                    }
               }
          }
     }
}
MOTION
Frames: 14
Frame Time: 0.01667
-5.82497 100.58000 83.77790 -0.23387 -1.10811 -32.50540 -0.36459 4.12912 0.56383 1.50145 8.16936 1.30673 -0.80307 -5.64589 10.80850 -0.00000 -0.00000 0.00000 -105.02800 -48.76040 -110.21400 -43.40770 38.57430 -65.06920 23.81700 3.85344 -24.82630 8.25006 0.38381 0.31415 73.21780 -7.17680 84.44810 38.44740 12.86280 59.38630 -9.09524 7.59173 26.82730 1.74356 -14.69580 -14.18120 -1.97751 23.72260 2.46118 3.79291 -7.09070 0.00842 -0.88842 -0.20049 4.55280 -13.42820 10.25830 -19.51610 -0.87713 19.26210 -0.12149 14.20540 -8.31490 -0.09370 0.79917 -8.29496 -0.44141 
-5.87984 100.59400 83.80300 -0.20418 -1.04264 -32.41360 -0.28947 4.11013 0.57636 1.50158 8.14388 1.35591 -1.11683 -5.72441 10.67310 -0.00000 -0.00000 0.00000 -106.64600 -48.70820 -111.36700 -44.81700 39.49620 -64.29890 23.84250 4.07750 -23.76610 8.63465 0.42538 0.60218 72.93550 -7.33886 84.06420 38.60250 12.97680 59.63500 -9.17079 7.58888 26.59710 1.69621 -14.71040 -14.00350 -1.72763 23.68980 2.05238 3.73979 -7.14431 0.01078 -0.94404 -0.09582 4.69313 -13.54530 10.15790 -19.10710 -0.49466 19.49270 -1.02790 14.96970 -8.79890 -0.02818 0.61949 -6.67577 0.28696 
-5.89642 100.59000 83.81400 -0.15708 -1.05080 -32.37760 -0.25235 4.06915 0.59393 1.54483 8.06569 1.38960 -1.09473 -5.75416 10.70780 -0.00000 -0.00000 0.00000 -105.10600 -48.95380 -110.30800 -44.11070 38.54710 -64.73730 23.77020 3.90570 -24.64440 8.32776 0.40425 0.47686 73.09450 -7.06052 84.11970 38.37740 13.28720 59.89720 -9.20715 7.62176 26.05410 1.62027 -14.72700 -13.94290 -1.65536 23.72370 1.82969 3.90757 -7.32441 0.01731 -1.10007 0.30213 4.95277 -13.61590 10.10220 -18.93130 -0.41466 19.64760 -1.19220 15.02520 -8.74534 -0.03440 0.62399 -6.89357 0.43768 
-5.93504 100.57700 83.84500 -0.09677 -1.11505 -32.19360 -0.22325 3.88280 0.51880 1.51964 7.70408 1.25907 -1.31006 -5.02965 10.88520 -0.00000 -0.00000 0.00000 -104.27600 -49.32850 -109.52900 -43.93780 38.11290 -64.88160 23.47960 3.96735 -24.72110 8.81468 0.48054 1.02629 72.22980 -7.41039 83.42280 39.15930 12.88340 59.68360 -9.16733 7.59298 26.55720 1.53065 -14.74030 -14.18920 -1.79865 23.78740 1.95008 3.87577 -7.41761 0.02116 -1.13528 0.42862 4.96590 -13.77350 10.06810 -18.72460 -0.21544 20.00420 -1.36210 14.91900 -8.95338 -0.00927 0.64291 -6.61746 -0.03791 
-5.95867 100.55800 83.82820 -0.13054 -1.20138 -31.88410 -0.27325 3.91851 0.42540 1.41383 7.77371 1.06975 -0.81243 -5.33287 11.13490 -0.00000 -0.00000 0.00000 -105.38600 -49.45780 -110.22000 -44.40250 38.84210 -64.44780 23.38010 3.97944 -24.79010 9.38284 0.51434 1.18178 72.08040 -7.63644 83.39880 39.58430 12.99930 59.73500 -8.82493 7.73463 25.92840 1.45025 -14.69710 -14.27870 -1.70405 23.82530 1.68046 3.92367 -7.37400 0.01928 -1.10004 0.31408 4.93816 -13.65030 10.17720 -19.21990 -0.53397 20.10740 -1.30009 15.40360 -8.99923 0.00231 0.52418 -6.06311 0.80497 
-5.99127 100.56400 83.87660 -0.14214 -1.15406 -31.83420 -0.27093 3.98247 0.54498 1.48852 7.89981 1.30238 -0.73839 -5.73989 10.86700 -0.00000 -0.00000 0.00000 -105.29600 -48.85630 -110.15900 -44.57330 38.59950 -64.41530 23.32600 3.99738 -24.77440 9.13896 0.42313 0.49762 71.85270 -7.25740 83.68500 39.34940 12.94750 59.84820 -8.89735 7.68757 26.29100 1.48892 -14.74230 -14.33400 -1.77072 23.86840 1.72476 3.99604 -7.36383 0.01868 -1.10026 0.25952 5.00547 -13.65650 10.20810 -19.03170 -0.42107 20.10510 -1.97942 15.86930 -9.02448 0.01130 0.35135 -5.47795 2.09525 
-6.02426 100.53800 83.92700 -0.18980 -1.14985 -31.76460 -0.24932 3.95391 0.55017 1.61695 7.83559 1.29142 -0.78291 -5.67350 10.88340 -0.00000 -0.00000 0.00000 -105.69200 -48.96420 -110.29600 -45.13910 38.75350 -64.21650 23.61520 3.94066 -24.67550 9.04847 0.45704 0.78799 71.59550 -7.57573 83.38980 39.02510 13.15980 59.94350 -9.19323 7.61142 26.23310 1.42394 -14.73820 -14.28090 -1.52082 24.05310 1.54341 3.63482 -7.50901 0.02515 -1.05130 0.17435 4.87667 -13.40960 10.24040 -19.44380 -0.97418 20.04660 -1.47875 16.56630 -8.91855 0.00495 0.37255 -5.58008 1.97395 
-6.02618 100.53500 83.93640 -0.19079 -1.20019 -31.73750 -0.25713 3.97816 0.55819 1.63718 7.87950 1.28756 -0.87442 -5.79615 10.89220 -0.00000 -0.00000 0.00000 -105.90900 -48.97300 -110.54600 -45.21730 38.61850 -64.01760 23.52030 3.94237 -24.78630 8.77048 0.42543 0.57868 71.60030 -7.07689 83.54560 39.20940 12.88840 59.91980 -9.36701 7.54173 26.51070 1.43745 -14.71200 -14.08780 -1.56743 24.07690 1.33035 3.90845 -7.59564 0.02830 -1.12704 0.39709 4.96516 -13.49220 10.16740 -19.58100 -0.86882 20.28690 -1.29833 15.21950 -8.67091 -0.04207 0.51756 -6.61634 1.41397 
-6.05603 100.55300 84.01510 -0.35032 -1.28231 -31.61560 -0.17560 4.02134 0.55528 1.58288 7.99392 1.32022 -1.40317 -5.31079 10.62960 -0.00000 -0.00000 0.00000 -109.21900 -48.80640 -112.50800 -46.64220 40.55410 -63.05650 23.33010 4.21270 -23.75740 9.04135 0.46746 0.87397 71.52720 -7.43595 83.49950 39.60070 12.88780 59.76410 -9.25270 7.58224 26.39660 1.40939 -14.36520 -13.66140 -1.13638 23.86800 0.56353 4.61122 -7.29338 0.01381 -1.03911 -0.18355 5.26022 -13.42990 10.24680 -19.09730 -0.73664 20.66710 -2.21161 15.72660 -9.26481 0.04154 0.28051 -4.75127 2.11988 
-6.06470 100.53000 84.08030 -0.25433 -1.30965 -31.37090 -0.23248 4.02411 0.58332 1.54029 7.99740 1.39189 -1.22142 -5.30325 10.47020 -0.00000 -0.00000 0.00000 -109.49400 -48.48610 -112.45200 -46.99050 40.81560 -62.98050 23.44070 4.17730 -23.78860 8.87419 0.45094 0.77063 71.80910 -7.67149 83.44810 39.67350 13.18720 59.92020 -9.27614 7.57661 26.38670 1.53539 -14.56440 -14.11000 -1.92514 24.03180 1.18256 4.57222 -7.28257 0.01343 -0.90359 -0.32605 4.78147 -13.38270 10.11650 -19.52260 -1.18212 21.03240 -1.95309 15.80420 -9.52248 0.07716 0.26400 -4.51579 2.06606 
-6.10863 100.51900 84.13670 -0.25677 -1.29560 -31.18260 -0.19365 4.06943 0.58626 1.49902 8.10292 1.43084 -0.56407 -5.86395 10.52050 -0.00000 -0.00000 0.00000 -110.16700 -48.02580 -112.88600 -47.23840 41.24940 -62.82510 23.51390 4.17715 -23.70020 9.07462 0.44956 0.72254 71.21890 -7.64219 83.69370 39.87230 13.12310 60.09580 -9.72977 7.44177 26.51240 1.48662 -14.49920 -14.22160 -1.82498 23.94040 1.07142 4.73645 -7.01991 0.00034 -0.81796 -0.76811 4.91730 -13.45720 10.14350 -18.97690 -0.74541 21.15190 -2.83176 15.76660 -8.95265 0.00046 0.35412 -5.85337 2.44485 
-6.08572 100.50200 84.22160 -0.34561 -1.39931 -30.89880 -0.10117 4.12350 0.54227 1.48934 8.23307 1.37076 -0.46560 -6.06878 10.47220 -0.00000 -0.00000 0.00000 -108.42800 -47.84150 -111.47700 -45.63770 40.91950 -63.93840 24.26340 3.75448 -24.72710 9.25620 0.46472 0.81143 71.34060 -8.00339 83.69210 39.66960 13.79680 60.21940 -10.16270 7.33067 26.42010 1.35517 -14.28920 -14.03340 -1.58875 23.82330 0.68170 5.71133 -6.71817 -0.02214 -0.57238 -1.54536 4.68377 -13.65680 10.30990 -18.51180 0.00132 21.33110 -3.37971 14.39790 -8.09487 -0.11918 0.63983 -7.93268 1.34047 
-6.13584 100.46700 84.30070 -0.46515 -1.50991 -30.96920 -0.10504 4.20046 0.63098 1.52036 8.39441 1.54752 -0.45849 -5.69281 10.20050 -0.00000 -0.00000 0.00000 -108.53800 -47.57490 -111.49700 -46.36080 40.71290 -63.36630 23.71580 3.83793 -25.02380 9.41393 0.44973 0.66391 71.28650 -8.02571 83.79300 39.78140 13.85520 60.18380 -9.99763 7.38600 26.30460 1.55246 -14.21510 -13.65910 -1.80778 24.09740 0.72275 5.54682 -6.79641 -0.01648 -0.32619 -2.13971 4.18646 -13.52440 10.31020 -18.59520 -0.40375 21.63190 -3.15531 14.61350 -8.33959 -0.08828 0.59424 -7.38796 1.30973 
-6.11587 100.43200 84.37210 -0.53386 -1.47388 -30.92220 -0.11370 4.26291 0.63496 1.57492 8.51098 1.52800 -0.91280 -5.24536 10.09160 -0.00000 -0.00000 0.00000 -108.52800 -47.50730 -111.77100 -46.34060 40.61680 -63.38540 23.53950 3.89525 -24.98090 9.36771 0.42531 0.47802 71.76710 -7.63390 83.93370 39.24410 14.19040 60.53360 -9.64054 7.52850 25.76350 1.41200 -14.26980 -13.75270 -1.46826 24.42550 0.36611 5.72516 -7.18986 0.00439 -0.52646 -1.65957 4.59745 -13.70930 10.34930 -17.87700 0.32400 21.84170 -4.00125 14.55660 -8.68830 -0.04594 0.54153 -6.78799 1.31058 
